<svg xmlns="http://www.w3.org/2000/svg" xmlns:xlink="http://www.w3.org/1999/xlink" width="1920" zoomAndPan="magnify" viewBox="0 0 1440 1439.999935" height="1920" preserveAspectRatio="xMidYMid meet" version="1.0"><defs><g/><clipPath id="40aeffd5da"><path d="M 388.808594 125.714844 L 490 125.714844 L 490 225.65625 L 388.808594 225.65625 Z M 388.808594 125.714844 " clip-rule="nonzero"/></clipPath><clipPath id="c34dad55e9"><path d="M 489.941406 133.964844 L 489.941406 217.40625 C 489.941406 221.960938 486.246094 225.65625 481.691406 225.65625 L 397.058594 225.65625 C 392.503906 225.65625 388.808594 221.960938 388.808594 217.40625 L 388.808594 133.964844 C 388.808594 129.40625 392.503906 125.714844 397.058594 125.714844 L 481.691406 125.714844 C 486.246094 125.714844 489.941406 129.40625 489.941406 133.964844 Z M 489.941406 133.964844 " clip-rule="nonzero"/></clipPath><clipPath id="4b7d00373d"><path d="M 0.808594 0.714844 L 102 0.714844 L 102 100.65625 L 0.808594 100.65625 Z M 0.808594 0.714844 " clip-rule="nonzero"/></clipPath><clipPath id="c0775771e9"><path d="M 101.941406 8.964844 L 101.941406 92.40625 C 101.941406 96.960938 98.246094 100.65625 93.691406 100.65625 L 9.058594 100.65625 C 4.503906 100.65625 0.808594 96.960938 0.808594 92.40625 L 0.808594 8.964844 C 0.808594 4.40625 4.503906 0.714844 9.058594 0.714844 L 93.691406 0.714844 C 98.246094 0.714844 101.941406 4.40625 101.941406 8.964844 Z M 101.941406 8.964844 " clip-rule="nonzero"/></clipPath><clipPath id="b6817439fc"><rect x="0" width="102" y="0" height="101"/></clipPath><clipPath id="bfd2df6f97"><path d="M 388.808594 250.894531 L 490 250.894531 L 490 350.835938 L 388.808594 350.835938 Z M 388.808594 250.894531 " clip-rule="nonzero"/></clipPath><clipPath id="644798e785"><path d="M 489.941406 259.144531 L 489.941406 342.585938 C 489.941406 347.140625 486.246094 350.835938 481.691406 350.835938 L 397.058594 350.835938 C 392.503906 350.835938 388.808594 347.140625 388.808594 342.585938 L 388.808594 259.144531 C 388.808594 254.585938 392.503906 250.894531 397.058594 250.894531 L 481.691406 250.894531 C 486.246094 250.894531 489.941406 254.585938 489.941406 259.144531 Z M 489.941406 259.144531 " clip-rule="nonzero"/></clipPath><clipPath id="929b204e6b"><path d="M 0.808594 0.894531 L 102 0.894531 L 102 100.835938 L 0.808594 100.835938 Z M 0.808594 0.894531 " clip-rule="nonzero"/></clipPath><clipPath id="3d28e4334e"><path d="M 101.941406 9.144531 L 101.941406 92.585938 C 101.941406 97.140625 98.246094 100.835938 93.691406 100.835938 L 9.058594 100.835938 C 4.503906 100.835938 0.808594 97.140625 0.808594 92.585938 L 0.808594 9.144531 C 0.808594 4.585938 4.503906 0.894531 9.058594 0.894531 L 93.691406 0.894531 C 98.246094 0.894531 101.941406 4.585938 101.941406 9.144531 Z M 101.941406 9.144531 " clip-rule="nonzero"/></clipPath><clipPath id="69871f1018"><rect x="0" width="102" y="0" height="101"/></clipPath><clipPath id="a9c08b0879"><path d="M 388.808594 375.886719 L 490 375.886719 L 490 475.828125 L 388.808594 475.828125 Z M 388.808594 375.886719 " clip-rule="nonzero"/></clipPath><clipPath id="538c4f7ff7"><path d="M 489.941406 384.136719 L 489.941406 467.578125 C 489.941406 472.136719 486.246094 475.828125 481.691406 475.828125 L 397.058594 475.828125 C 392.503906 475.828125 388.808594 472.136719 388.808594 467.578125 L 388.808594 384.136719 C 388.808594 379.578125 392.503906 375.886719 397.058594 375.886719 L 481.691406 375.886719 C 486.246094 375.886719 489.941406 379.578125 489.941406 384.136719 Z M 489.941406 384.136719 " clip-rule="nonzero"/></clipPath><clipPath id="8beff84518"><path d="M 0.808594 0.886719 L 102 0.886719 L 102 100.828125 L 0.808594 100.828125 Z M 0.808594 0.886719 " clip-rule="nonzero"/></clipPath><clipPath id="e7a9afc58a"><path d="M 101.941406 9.136719 L 101.941406 92.578125 C 101.941406 97.136719 98.246094 100.828125 93.691406 100.828125 L 9.058594 100.828125 C 4.503906 100.828125 0.808594 97.136719 0.808594 92.578125 L 0.808594 9.136719 C 0.808594 4.578125 4.503906 0.886719 9.058594 0.886719 L 93.691406 0.886719 C 98.246094 0.886719 101.941406 4.578125 101.941406 9.136719 Z M 101.941406 9.136719 " clip-rule="nonzero"/></clipPath><clipPath id="dd827eccb0"><rect x="0" width="102" y="0" height="101"/></clipPath><clipPath id="a41fbe5716"><path d="M 518.523438 375.886719 L 620 375.886719 L 620 475.828125 L 518.523438 475.828125 Z M 518.523438 375.886719 " clip-rule="nonzero"/></clipPath><clipPath id="c47b7d9c95"><path d="M 619.652344 384.136719 L 619.652344 467.578125 C 619.652344 472.136719 615.960938 475.828125 611.402344 475.828125 L 526.769531 475.828125 C 522.214844 475.828125 518.523438 472.136719 518.523438 467.578125 L 518.523438 384.136719 C 518.523438 379.578125 522.214844 375.886719 526.769531 375.886719 L 611.402344 375.886719 C 615.960938 375.886719 619.652344 379.578125 619.652344 384.136719 Z M 619.652344 384.136719 " clip-rule="nonzero"/></clipPath><clipPath id="d3a3255265"><path d="M 0.523438 0.886719 L 101.878906 0.886719 L 101.878906 100.828125 L 0.523438 100.828125 Z M 0.523438 0.886719 " clip-rule="nonzero"/></clipPath><clipPath id="4f576901d6"><path d="M 101.652344 9.136719 L 101.652344 92.578125 C 101.652344 97.136719 97.960938 100.828125 93.402344 100.828125 L 8.769531 100.828125 C 4.214844 100.828125 0.523438 97.136719 0.523438 92.578125 L 0.523438 9.136719 C 0.523438 4.578125 4.214844 0.886719 8.769531 0.886719 L 93.402344 0.886719 C 97.960938 0.886719 101.652344 4.578125 101.652344 9.136719 Z M 101.652344 9.136719 " clip-rule="nonzero"/></clipPath><clipPath id="6599363cd2"><rect x="0" width="102" y="0" height="101"/></clipPath><clipPath id="72145dbcae"><path d="M 518.523438 250.894531 L 620 250.894531 L 620 350.835938 L 518.523438 350.835938 Z M 518.523438 250.894531 " clip-rule="nonzero"/></clipPath><clipPath id="54056da30c"><path d="M 619.652344 259.144531 L 619.652344 342.585938 C 619.652344 347.140625 615.960938 350.835938 611.402344 350.835938 L 526.769531 350.835938 C 522.214844 350.835938 518.523438 347.140625 518.523438 342.585938 L 518.523438 259.144531 C 518.523438 254.585938 522.214844 250.894531 526.769531 250.894531 L 611.402344 250.894531 C 615.960938 250.894531 619.652344 254.585938 619.652344 259.144531 Z M 619.652344 259.144531 " clip-rule="nonzero"/></clipPath><clipPath id="8c654668e0"><path d="M 0.523438 0.894531 L 101.878906 0.894531 L 101.878906 100.835938 L 0.523438 100.835938 Z M 0.523438 0.894531 " clip-rule="nonzero"/></clipPath><clipPath id="e5eb883786"><path d="M 101.652344 9.144531 L 101.652344 92.585938 C 101.652344 97.140625 97.960938 100.835938 93.402344 100.835938 L 8.769531 100.835938 C 4.214844 100.835938 0.523438 97.140625 0.523438 92.585938 L 0.523438 9.144531 C 0.523438 4.585938 4.214844 0.894531 8.769531 0.894531 L 93.402344 0.894531 C 97.960938 0.894531 101.652344 4.585938 101.652344 9.144531 Z M 101.652344 9.144531 " clip-rule="nonzero"/></clipPath><clipPath id="b6053cdade"><rect x="0" width="102" y="0" height="101"/></clipPath><clipPath id="ea3b71c065"><path d="M 648.660156 250.894531 L 750 250.894531 L 750 350.835938 L 648.660156 350.835938 Z M 648.660156 250.894531 " clip-rule="nonzero"/></clipPath><clipPath id="2c8b3f1ac7"><path d="M 749.792969 259.144531 L 749.792969 342.585938 C 749.792969 347.140625 746.101562 350.835938 741.542969 350.835938 L 656.910156 350.835938 C 652.355469 350.835938 648.660156 347.140625 648.660156 342.585938 L 648.660156 259.144531 C 648.660156 254.585938 652.355469 250.894531 656.910156 250.894531 L 741.542969 250.894531 C 746.101562 250.894531 749.792969 254.585938 749.792969 259.144531 Z M 749.792969 259.144531 " clip-rule="nonzero"/></clipPath><clipPath id="8dc90dda83"><path d="M 0.660156 0.894531 L 101.960938 0.894531 L 101.960938 100.835938 L 0.660156 100.835938 Z M 0.660156 0.894531 " clip-rule="nonzero"/></clipPath><clipPath id="fec01ce4b3"><path d="M 101.792969 9.144531 L 101.792969 92.585938 C 101.792969 97.140625 98.101562 100.835938 93.542969 100.835938 L 8.910156 100.835938 C 4.355469 100.835938 0.660156 97.140625 0.660156 92.585938 L 0.660156 9.144531 C 0.660156 4.585938 4.355469 0.894531 8.910156 0.894531 L 93.542969 0.894531 C 98.101562 0.894531 101.792969 4.585938 101.792969 9.144531 Z M 101.792969 9.144531 " clip-rule="nonzero"/></clipPath><clipPath id="f2097f74ab"><rect x="0" width="102" y="0" height="101"/></clipPath><clipPath id="cb6b697cd4"><path d="M 518.523438 125.898438 L 620 125.898438 L 620 225.839844 L 518.523438 225.839844 Z M 518.523438 125.898438 " clip-rule="nonzero"/></clipPath><clipPath id="115dac7cda"><path d="M 619.652344 134.148438 L 619.652344 217.59375 C 619.652344 222.148438 615.960938 225.839844 611.402344 225.839844 L 526.769531 225.839844 C 522.214844 225.839844 518.523438 222.148438 518.523438 217.59375 L 518.523438 134.148438 C 518.523438 129.59375 522.214844 125.898438 526.769531 125.898438 L 611.402344 125.898438 C 615.960938 125.898438 619.652344 129.59375 619.652344 134.148438 Z M 619.652344 134.148438 " clip-rule="nonzero"/></clipPath><clipPath id="9379499970"><path d="M 0.523438 0.898438 L 101.878906 0.898438 L 101.878906 100.839844 L 0.523438 100.839844 Z M 0.523438 0.898438 " clip-rule="nonzero"/></clipPath><clipPath id="89e44e4f4b"><path d="M 101.652344 9.148438 L 101.652344 92.59375 C 101.652344 97.148438 97.960938 100.839844 93.402344 100.839844 L 8.769531 100.839844 C 4.214844 100.839844 0.523438 97.148438 0.523438 92.59375 L 0.523438 9.148438 C 0.523438 4.59375 4.214844 0.898438 8.769531 0.898438 L 93.402344 0.898438 C 97.960938 0.898438 101.652344 4.59375 101.652344 9.148438 Z M 101.652344 9.148438 " clip-rule="nonzero"/></clipPath><clipPath id="8bb994983d"><rect x="0" width="102" y="0" height="101"/></clipPath><clipPath id="1e83323927"><path d="M 518.523438 0.90625 L 620 0.90625 L 620 100.847656 L 518.523438 100.847656 Z M 518.523438 0.90625 " clip-rule="nonzero"/></clipPath><clipPath id="77295bb364"><path d="M 619.652344 9.15625 L 619.652344 92.597656 C 619.652344 97.15625 615.960938 100.847656 611.402344 100.847656 L 526.769531 100.847656 C 522.214844 100.847656 518.523438 97.15625 518.523438 92.597656 L 518.523438 9.15625 C 518.523438 4.597656 522.214844 0.90625 526.769531 0.90625 L 611.402344 0.90625 C 615.960938 0.90625 619.652344 4.597656 619.652344 9.15625 Z M 619.652344 9.15625 " clip-rule="nonzero"/></clipPath><clipPath id="8a02bc56a2"><path d="M 0.523438 0.90625 L 101.878906 0.90625 L 101.878906 100.847656 L 0.523438 100.847656 Z M 0.523438 0.90625 " clip-rule="nonzero"/></clipPath><clipPath id="617bdfd1e5"><path d="M 101.652344 9.15625 L 101.652344 92.597656 C 101.652344 97.15625 97.960938 100.847656 93.402344 100.847656 L 8.769531 100.847656 C 4.214844 100.847656 0.523438 97.15625 0.523438 92.597656 L 0.523438 9.15625 C 0.523438 4.597656 4.214844 0.90625 8.769531 0.90625 L 93.402344 0.90625 C 97.960938 0.90625 101.652344 4.597656 101.652344 9.15625 Z M 101.652344 9.15625 " clip-rule="nonzero"/></clipPath><clipPath id="42bb7d2e95"><rect x="0" width="102" y="0" height="101"/></clipPath><clipPath id="8df6a438e2"><path d="M 648.660156 0.90625 L 750 0.90625 L 750 100.847656 L 648.660156 100.847656 Z M 648.660156 0.90625 " clip-rule="nonzero"/></clipPath><clipPath id="dd65f16fdb"><path d="M 749.792969 9.15625 L 749.792969 92.597656 C 749.792969 97.15625 746.101562 100.847656 741.542969 100.847656 L 656.910156 100.847656 C 652.355469 100.847656 648.660156 97.15625 648.660156 92.597656 L 648.660156 9.15625 C 648.660156 4.597656 652.355469 0.90625 656.910156 0.90625 L 741.542969 0.90625 C 746.101562 0.90625 749.792969 4.597656 749.792969 9.15625 Z M 749.792969 9.15625 " clip-rule="nonzero"/></clipPath><clipPath id="12c7e10935"><path d="M 0.660156 0.90625 L 101.960938 0.90625 L 101.960938 100.847656 L 0.660156 100.847656 Z M 0.660156 0.90625 " clip-rule="nonzero"/></clipPath><clipPath id="d6f85e9974"><path d="M 101.792969 9.15625 L 101.792969 92.597656 C 101.792969 97.15625 98.101562 100.847656 93.542969 100.847656 L 8.910156 100.847656 C 4.355469 100.847656 0.660156 97.15625 0.660156 92.597656 L 0.660156 9.15625 C 0.660156 4.597656 4.355469 0.90625 8.910156 0.90625 L 93.542969 0.90625 C 98.101562 0.90625 101.792969 4.597656 101.792969 9.15625 Z M 101.792969 9.15625 " clip-rule="nonzero"/></clipPath><clipPath id="4cedf213cc"><rect x="0" width="102" y="0" height="101"/></clipPath><clipPath id="079b8ce3dc"><path d="M 388.808594 0.71875 L 490.5 0.71875 L 490.5 100.847656 L 388.808594 100.847656 Z M 388.808594 0.71875 " clip-rule="nonzero"/></clipPath><clipPath id="ae9a77c21b"><path d="M 490.128906 50.785156 C 490.128906 78.433594 467.714844 100.847656 440.066406 100.847656 L 438.875 100.847656 C 411.222656 100.847656 388.808594 78.433594 388.808594 50.785156 C 388.808594 23.132812 411.222656 0.71875 438.875 0.71875 L 440.066406 0.71875 C 467.714844 0.71875 490.128906 23.132812 490.128906 50.785156 Z M 490.128906 50.785156 " clip-rule="nonzero"/></clipPath><clipPath id="a01fc102b4"><path d="M 0.808594 0.71875 L 102.28125 0.71875 L 102.28125 100.847656 L 0.808594 100.847656 Z M 0.808594 0.71875 " clip-rule="nonzero"/></clipPath><clipPath id="c77b23dddf"><path d="M 102.128906 50.785156 C 102.128906 78.433594 79.714844 100.847656 52.066406 100.847656 L 50.875 100.847656 C 23.222656 100.847656 0.808594 78.433594 0.808594 50.785156 C 0.808594 23.132812 23.222656 0.71875 50.875 0.71875 L 52.066406 0.71875 C 79.714844 0.71875 102.128906 23.132812 102.128906 50.785156 Z M 102.128906 50.785156 " clip-rule="nonzero"/></clipPath><clipPath id="1a7f47db72"><rect x="0" width="103" y="0" height="101"/></clipPath><clipPath id="528d77abd5"><path d="M 46.621094 1113.515625 L 1103.523438 1113.515625 L 1103.523438 1129.667969 L 46.621094 1129.667969 Z M 46.621094 1113.515625 " clip-rule="nonzero"/></clipPath><clipPath id="80252f206f"><path d="M 0.621094 0.515625 L 1057.523438 0.515625 L 1057.523438 16.667969 L 0.621094 16.667969 Z M 0.621094 0.515625 " clip-rule="nonzero"/></clipPath><clipPath id="a465aca869"><rect x="0" width="1058" y="0" height="17"/></clipPath><clipPath id="515d2d9fdf"><rect x="0" width="858" y="0" height="427"/></clipPath><clipPath id="8ea79a1728"><rect x="0" width="1142" y="0" height="1411"/></clipPath></defs><rect x="-144" width="1728" fill="#ffffff" y="-143.999994" height="1727.999922" fill-opacity="1"/><rect x="-144" width="1728" fill="#ffffff" y="-143.999994" height="1727.999922" fill-opacity="1"/><g transform="matrix(1, 0, 0, 1, 103, 19)"><g clip-path="url(#8ea79a1728)"><g clip-path="url(#40aeffd5da)"><g clip-path="url(#c34dad55e9)"><g transform="matrix(1, 0, 0, 1, 388, 125)"><g clip-path="url(#b6817439fc)"><g clip-path="url(#4b7d00373d)"><g clip-path="url(#c0775771e9)"><path fill="#34a043" d="M 0.808594 0.714844 L 101.921875 0.714844 L 101.921875 100.65625 L 0.808594 100.65625 Z M 0.808594 0.714844 " fill-opacity="1" fill-rule="nonzero"/></g></g></g></g></g></g><g clip-path="url(#bfd2df6f97)"><g clip-path="url(#644798e785)"><g transform="matrix(1, 0, 0, 1, 388, 250)"><g clip-path="url(#69871f1018)"><g clip-path="url(#929b204e6b)"><g clip-path="url(#3d28e4334e)"><path fill="#34a043" d="M 0.808594 0.894531 L 101.921875 0.894531 L 101.921875 100.835938 L 0.808594 100.835938 Z M 0.808594 0.894531 " fill-opacity="1" fill-rule="nonzero"/></g></g></g></g></g></g><g clip-path="url(#a9c08b0879)"><g clip-path="url(#538c4f7ff7)"><g transform="matrix(1, 0, 0, 1, 388, 375)"><g clip-path="url(#dd827eccb0)"><g clip-path="url(#8beff84518)"><g clip-path="url(#e7a9afc58a)"><path fill="#34a043" d="M 0.808594 0.886719 L 101.921875 0.886719 L 101.921875 100.828125 L 0.808594 100.828125 Z M 0.808594 0.886719 " fill-opacity="1" fill-rule="nonzero"/></g></g></g></g></g></g><g clip-path="url(#a41fbe5716)"><g clip-path="url(#c47b7d9c95)"><g transform="matrix(1, 0, 0, 1, 518, 375)"><g clip-path="url(#6599363cd2)"><g clip-path="url(#d3a3255265)"><g clip-path="url(#4f576901d6)"><path fill="#34a043" d="M 0.523438 0.886719 L 101.636719 0.886719 L 101.636719 100.828125 L 0.523438 100.828125 Z M 0.523438 0.886719 " fill-opacity="1" fill-rule="nonzero"/></g></g></g></g></g></g><g clip-path="url(#72145dbcae)"><g clip-path="url(#54056da30c)"><g transform="matrix(1, 0, 0, 1, 518, 250)"><g clip-path="url(#b6053cdade)"><g clip-path="url(#8c654668e0)"><g clip-path="url(#e5eb883786)"><path fill="#34a043" d="M 0.523438 0.894531 L 101.636719 0.894531 L 101.636719 100.835938 L 0.523438 100.835938 Z M 0.523438 0.894531 " fill-opacity="1" fill-rule="nonzero"/></g></g></g></g></g></g><g clip-path="url(#ea3b71c065)"><g clip-path="url(#2c8b3f1ac7)"><g transform="matrix(1, 0, 0, 1, 648, 250)"><g clip-path="url(#f2097f74ab)"><g clip-path="url(#8dc90dda83)"><g clip-path="url(#fec01ce4b3)"><path fill="#34a043" d="M 0.660156 0.894531 L 101.773438 0.894531 L 101.773438 100.835938 L 0.660156 100.835938 Z M 0.660156 0.894531 " fill-opacity="1" fill-rule="nonzero"/></g></g></g></g></g></g><g clip-path="url(#cb6b697cd4)"><g clip-path="url(#115dac7cda)"><g transform="matrix(1, 0, 0, 1, 518, 125)"><g clip-path="url(#8bb994983d)"><g clip-path="url(#9379499970)"><g clip-path="url(#89e44e4f4b)"><path fill="#34a043" d="M 0.523438 0.898438 L 101.636719 0.898438 L 101.636719 100.839844 L 0.523438 100.839844 Z M 0.523438 0.898438 " fill-opacity="1" fill-rule="nonzero"/></g></g></g></g></g></g><g clip-path="url(#1e83323927)"><g clip-path="url(#77295bb364)"><g transform="matrix(1, 0, 0, 1, 518, -0.000000000000103029)"><g clip-path="url(#42bb7d2e95)"><g clip-path="url(#8a02bc56a2)"><g clip-path="url(#617bdfd1e5)"><path fill="#34a043" d="M 0.523438 0.90625 L 101.636719 0.90625 L 101.636719 100.847656 L 0.523438 100.847656 Z M 0.523438 0.90625 " fill-opacity="1" fill-rule="nonzero"/></g></g></g></g></g></g><g clip-path="url(#8df6a438e2)"><g clip-path="url(#dd65f16fdb)"><g transform="matrix(1, 0, 0, 1, 648, -0.000000000000103029)"><g clip-path="url(#4cedf213cc)"><g clip-path="url(#12c7e10935)"><g clip-path="url(#d6f85e9974)"><path fill="#34a043" d="M 0.660156 0.90625 L 101.773438 0.90625 L 101.773438 100.847656 L 0.660156 100.847656 Z M 0.660156 0.90625 " fill-opacity="1" fill-rule="nonzero"/></g></g></g></g></g></g><g clip-path="url(#079b8ce3dc)"><g clip-path="url(#ae9a77c21b)"><g transform="matrix(1, 0, 0, 1, 388, -0.000000000000103029)"><g clip-path="url(#1a7f47db72)"><g clip-path="url(#a01fc102b4)"><g clip-path="url(#c77b23dddf)"><path fill="#cd2528" d="M 0.808594 0.71875 L 102.109375 0.71875 L 102.109375 100.847656 L 0.808594 100.847656 Z M 0.808594 0.71875 " fill-opacity="1" fill-rule="nonzero"/></g></g></g></g></g></g><g clip-path="url(#528d77abd5)"><g transform="matrix(1, 0, 0, 1, 46, 1113)"><g clip-path="url(#a465aca869)"><g clip-path="url(#80252f206f)"><path fill="#34a043" d="M 0.621094 0.515625 L 1057.523438 0.515625 L 1057.523438 16.667969 L 0.621094 16.667969 Z M 0.621094 0.515625 " fill-opacity="1" fill-rule="nonzero"/></g></g></g></g><g transform="matrix(1, 0, 0, 1, 142, 529)"><g clip-path="url(#515d2d9fdf)"><g fill="#000000" fill-opacity="1"><g transform="translate(1.278665, 164.352838)"><g><path d="M 13.90625 0 L 13.90625 -110.453125 L 37.3125 -110.453125 L 37.3125 0 Z M 13.90625 0 "/></g></g></g><g fill="#000000" fill-opacity="1"><g transform="translate(56.211209, 164.352838)"><g><path d="M 111.890625 0 L 82.125 0 L 34.078125 -83.546875 L 33.390625 -83.546875 C 34.347656 -68.796875 34.828125 -58.269531 34.828125 -51.96875 L 34.828125 0 L 13.90625 0 L 13.90625 -110.453125 L 43.4375 -110.453125 L 91.40625 -27.71875 L 91.9375 -27.71875 C 91.1875 -42.070312 90.8125 -52.222656 90.8125 -58.171875 L 90.8125 -110.453125 L 111.890625 -110.453125 Z M 111.890625 0 "/></g></g></g><g fill="#000000" fill-opacity="1"><g transform="translate(185.705931, 164.352838)"><g><path d="M 79.09375 -30.671875 C 79.09375 -20.703125 75.503906 -12.84375 68.328125 -7.09375 C 61.148438 -1.351562 51.164062 1.515625 38.375 1.515625 C 26.59375 1.515625 16.164062 -0.703125 7.09375 -5.140625 L 7.09375 -26.890625 C 14.550781 -23.566406 20.859375 -21.222656 26.015625 -19.859375 C 31.179688 -18.503906 35.90625 -17.828125 40.1875 -17.828125 C 45.320312 -17.828125 49.257812 -18.804688 52 -20.765625 C 54.75 -22.734375 56.125 -25.65625 56.125 -29.53125 C 56.125 -31.695312 55.519531 -33.625 54.3125 -35.3125 C 53.101562 -37 51.328125 -38.625 48.984375 -40.1875 C 46.648438 -41.75 41.878906 -44.242188 34.671875 -47.671875 C 27.921875 -50.835938 22.859375 -53.878906 19.484375 -56.796875 C 16.109375 -59.722656 13.414062 -63.125 11.40625 -67 C 9.394531 -70.882812 8.390625 -75.421875 8.390625 -80.609375 C 8.390625 -90.378906 11.695312 -98.054688 18.3125 -103.640625 C 24.9375 -109.234375 34.09375 -112.03125 45.78125 -112.03125 C 51.519531 -112.03125 56.992188 -111.347656 62.203125 -109.984375 C 67.421875 -108.628906 72.875 -106.71875 78.5625 -104.25 L 71.015625 -86.046875 C 65.117188 -88.460938 60.242188 -90.148438 56.390625 -91.109375 C 52.535156 -92.066406 48.75 -92.546875 45.03125 -92.546875 C 40.59375 -92.546875 37.191406 -91.507812 34.828125 -89.4375 C 32.460938 -87.375 31.28125 -84.679688 31.28125 -81.359375 C 31.28125 -79.296875 31.753906 -77.492188 32.703125 -75.953125 C 33.660156 -74.421875 35.1875 -72.9375 37.28125 -71.5 C 39.375 -70.0625 44.320312 -67.484375 52.125 -63.765625 C 62.445312 -58.828125 69.519531 -53.875 73.34375 -48.90625 C 77.175781 -43.945312 79.09375 -37.867188 79.09375 -30.671875 Z M 79.09375 -30.671875 "/></g></g></g><g fill="#000000" fill-opacity="1"><g transform="translate(274.633389, 164.352838)"><g><path d="M 56.515625 0 L 33.09375 0 L 33.09375 -90.953125 L 3.09375 -90.953125 L 3.09375 -110.453125 L 86.5 -110.453125 L 86.5 -90.953125 L 56.515625 -90.953125 Z M 56.515625 0 "/></g></g></g><g fill="#000000" fill-opacity="1"><g transform="translate(367.942434, 164.352838)"><g><path d="M 13.90625 0 L 13.90625 -110.453125 L 37.3125 -110.453125 L 37.3125 0 Z M 13.90625 0 "/></g></g></g><g fill="#000000" fill-opacity="1"><g transform="translate(422.874958, 164.352838)"><g><path d="M 56.515625 0 L 33.09375 0 L 33.09375 -90.953125 L 3.09375 -90.953125 L 3.09375 -110.453125 L 86.5 -110.453125 L 86.5 -90.953125 L 56.515625 -90.953125 Z M 56.515625 0 "/></g></g></g><g fill="#000000" fill-opacity="1"><g transform="translate(516.183962, 164.352838)"><g><path d="M 103.796875 -110.453125 L 103.796875 -38.984375 C 103.796875 -30.828125 101.96875 -23.675781 98.3125 -17.53125 C 94.664062 -11.382812 89.390625 -6.671875 82.484375 -3.390625 C 75.585938 -0.117188 67.429688 1.515625 58.015625 1.515625 C 43.816406 1.515625 32.785156 -2.125 24.921875 -9.40625 C 17.066406 -16.6875 13.140625 -26.644531 13.140625 -39.28125 L 13.140625 -110.453125 L 36.484375 -110.453125 L 36.484375 -42.828125 C 36.484375 -34.316406 38.195312 -28.070312 41.625 -24.09375 C 45.050781 -20.113281 50.71875 -18.125 58.625 -18.125 C 66.28125 -18.125 71.832031 -20.125 75.28125 -24.125 C 78.726562 -28.132812 80.453125 -34.421875 80.453125 -42.984375 L 80.453125 -110.453125 Z M 103.796875 -110.453125 "/></g></g></g><g fill="#000000" fill-opacity="1"><g transform="translate(636.840027, 164.352838)"><g><path d="M 56.515625 0 L 33.09375 0 L 33.09375 -90.953125 L 3.09375 -90.953125 L 3.09375 -110.453125 L 86.5 -110.453125 L 86.5 -90.953125 L 56.515625 -90.953125 Z M 56.515625 0 "/></g></g></g><g fill="#000000" fill-opacity="1"><g transform="translate(730.149031, 164.352838)"><g><path d="M 114.15625 -55.375 C 114.15625 -37.09375 109.617188 -23.039062 100.546875 -13.21875 C 91.484375 -3.394531 78.488281 1.515625 61.5625 1.515625 C 44.644531 1.515625 31.648438 -3.394531 22.578125 -13.21875 C 13.515625 -23.039062 8.984375 -37.144531 8.984375 -55.53125 C 8.984375 -73.90625 13.53125 -87.941406 22.625 -97.640625 C 31.71875 -107.335938 44.75 -112.1875 61.71875 -112.1875 C 78.695312 -112.1875 91.679688 -107.300781 100.671875 -97.53125 C 109.660156 -87.757812 114.15625 -73.707031 114.15625 -55.375 Z M 33.546875 -55.375 C 33.546875 -43.03125 35.882812 -33.734375 40.5625 -27.484375 C 45.25 -21.242188 52.25 -18.125 61.5625 -18.125 C 80.25 -18.125 89.59375 -30.539062 89.59375 -55.375 C 89.59375 -80.25 80.300781 -92.6875 61.71875 -92.6875 C 52.40625 -92.6875 45.378906 -89.550781 40.640625 -83.28125 C 35.910156 -77.019531 33.546875 -67.71875 33.546875 -55.375 Z M 33.546875 -55.375 "/></g></g></g><g fill="#000000" fill-opacity="1"><g transform="translate(81.643757, 380.582506)"><g><path d="M 36.9375 0 L 13.90625 0 L 13.90625 -110.453125 L 77.203125 -110.453125 L 77.203125 -91.265625 L 36.9375 -91.265625 L 36.9375 -62.78125 L 74.40625 -62.78125 L 74.40625 -43.671875 L 36.9375 -43.671875 Z M 36.9375 0 "/></g></g></g><g fill="#000000" fill-opacity="1"><g transform="translate(170.269038, 380.582506)"><g><path d="M 77.515625 0 L 13.90625 0 L 13.90625 -110.453125 L 77.515625 -110.453125 L 77.515625 -91.265625 L 37.3125 -91.265625 L 37.3125 -67.015625 L 74.71875 -67.015625 L 74.71875 -47.828125 L 37.3125 -47.828125 L 37.3125 -19.34375 L 77.515625 -19.34375 Z M 77.515625 0 "/></g></g></g><g fill="#000000" fill-opacity="1"><g transform="translate(260.631837, 380.582506)"><g><path d="M 105.53125 -56.28125 C 105.53125 -38.101562 100.351562 -24.175781 90 -14.5 C 79.65625 -4.832031 64.710938 0 45.171875 0 L 13.90625 0 L 13.90625 -110.453125 L 48.578125 -110.453125 C 66.609375 -110.453125 80.609375 -105.691406 90.578125 -96.171875 C 100.546875 -86.648438 105.53125 -73.351562 105.53125 -56.28125 Z M 81.21875 -55.671875 C 81.21875 -79.398438 70.738281 -91.265625 49.78125 -91.265625 L 37.3125 -91.265625 L 37.3125 -19.34375 L 47.375 -19.34375 C 69.9375 -19.34375 81.21875 -31.453125 81.21875 -55.671875 Z M 81.21875 -55.671875 "/></g></g></g><g fill="#000000" fill-opacity="1"><g transform="translate(378.870466, 380.582506)"><g><path d="M 77.515625 0 L 13.90625 0 L 13.90625 -110.453125 L 77.515625 -110.453125 L 77.515625 -91.265625 L 37.3125 -91.265625 L 37.3125 -67.015625 L 74.71875 -67.015625 L 74.71875 -47.828125 L 37.3125 -47.828125 L 37.3125 -19.34375 L 77.515625 -19.34375 Z M 77.515625 0 "/></g></g></g><g fill="#000000" fill-opacity="1"><g transform="translate(469.233264, 380.582506)"><g><path d="M 37.3125 -61.421875 L 44.875 -61.421875 C 52.28125 -61.421875 57.742188 -62.65625 61.265625 -65.125 C 64.796875 -67.59375 66.5625 -71.46875 66.5625 -76.75 C 66.5625 -81.988281 64.757812 -85.71875 61.15625 -87.9375 C 57.550781 -90.15625 51.972656 -91.265625 44.421875 -91.265625 L 37.3125 -91.265625 Z M 37.3125 -42.375 L 37.3125 0 L 13.90625 0 L 13.90625 -110.453125 L 46.078125 -110.453125 C 61.085938 -110.453125 72.191406 -107.71875 79.390625 -102.25 C 86.597656 -96.789062 90.203125 -88.492188 90.203125 -77.359375 C 90.203125 -70.859375 88.410156 -65.078125 84.828125 -60.015625 C 81.253906 -54.953125 76.195312 -50.988281 69.65625 -48.125 C 86.269531 -23.289062 97.097656 -7.25 102.140625 0 L 76.15625 0 L 49.78125 -42.375 Z M 37.3125 -42.375 "/></g></g></g><g fill="#000000" fill-opacity="1"><g transform="translate(575.082656, 380.582506)"><g><path d="M 81.515625 0 L 73.5 -26.296875 L 33.234375 -26.296875 L 25.234375 0 L 0 0 L 38.984375 -110.90625 L 67.609375 -110.90625 L 106.75 0 Z M 67.921875 -45.9375 C 60.515625 -69.757812 56.34375 -83.226562 55.40625 -86.34375 C 54.476562 -89.46875 53.8125 -91.9375 53.40625 -93.75 C 51.75 -87.300781 46.992188 -71.363281 39.140625 -45.9375 Z M 67.921875 -45.9375 "/></g></g></g><g fill="#000000" fill-opacity="1"><g transform="translate(685.540226, 380.582506)"><g><path d="M 13.90625 0 L 13.90625 -110.453125 L 37.3125 -110.453125 L 37.3125 -19.34375 L 82.125 -19.34375 L 82.125 0 Z M 13.90625 0 "/></g></g></g></g></g><g fill="#000000" fill-opacity="1"><g transform="translate(1.154375, 1072.663706)"><g><path d="M 71.703125 0 L 61.34375 0 L 18.6875 -65.515625 L 18.265625 -65.515625 C 18.828125 -57.828125 19.109375 -50.78125 19.109375 -44.375 L 19.109375 0 L 10.734375 0 L 10.734375 -78.0625 L 20.984375 -78.0625 L 63.53125 -12.8125 L 63.96875 -12.8125 C 63.894531 -13.769531 63.734375 -16.859375 63.484375 -22.078125 C 63.234375 -27.296875 63.144531 -31.023438 63.21875 -33.265625 L 63.21875 -78.0625 L 71.703125 -78.0625 Z M 71.703125 0 "/></g></g></g><g fill="#000000" fill-opacity="1"><g transform="translate(83.580131, 1072.663706)"><g><path d="M 59.90625 -29.3125 C 59.90625 -19.769531 57.5 -12.320312 52.6875 -6.96875 C 47.882812 -1.613281 41.25 1.0625 32.78125 1.0625 C 27.550781 1.0625 22.90625 -0.160156 18.84375 -2.609375 C 14.789062 -5.066406 11.660156 -8.59375 9.453125 -13.1875 C 7.242188 -17.78125 6.140625 -23.15625 6.140625 -29.3125 C 6.140625 -38.851562 8.523438 -46.28125 13.296875 -51.59375 C 18.066406 -56.914062 24.6875 -59.578125 33.15625 -59.578125 C 41.34375 -59.578125 47.847656 -56.851562 52.671875 -51.40625 C 57.492188 -45.96875 59.90625 -38.601562 59.90625 -29.3125 Z M 15.328125 -29.3125 C 15.328125 -21.832031 16.820312 -16.132812 19.8125 -12.21875 C 22.800781 -8.3125 27.195312 -6.359375 33 -6.359375 C 38.800781 -6.359375 43.203125 -8.304688 46.203125 -12.203125 C 49.210938 -16.097656 50.71875 -21.800781 50.71875 -29.3125 C 50.71875 -36.75 49.210938 -42.398438 46.203125 -46.265625 C 43.203125 -50.128906 38.765625 -52.0625 32.890625 -52.0625 C 27.085938 -52.0625 22.707031 -50.15625 19.75 -46.34375 C 16.800781 -42.53125 15.328125 -36.851562 15.328125 -29.3125 Z M 15.328125 -29.3125 "/></g></g></g><g fill="#000000" fill-opacity="1"><g transform="translate(149.616828, 1072.663706)"><g><path d="M 36.09375 -59.578125 C 38.6875 -59.578125 41.019531 -59.363281 43.09375 -58.9375 L 41.859375 -50.71875 C 39.441406 -51.25 37.304688 -51.515625 35.453125 -51.515625 C 30.710938 -51.515625 26.660156 -49.59375 23.296875 -45.75 C 19.941406 -41.90625 18.265625 -37.117188 18.265625 -31.390625 L 18.265625 0 L 9.390625 0 L 9.390625 -58.515625 L 16.71875 -58.515625 L 17.71875 -47.671875 L 18.15625 -47.671875 C 20.320312 -51.484375 22.9375 -54.421875 26 -56.484375 C 29.0625 -58.546875 32.425781 -59.578125 36.09375 -59.578125 Z M 36.09375 -59.578125 "/></g></g></g><g fill="#000000" fill-opacity="1"><g transform="translate(194.246317, 1072.663706)"><g><path d="M 28.296875 -6.25 C 29.859375 -6.25 31.367188 -6.363281 32.828125 -6.59375 C 34.296875 -6.820312 35.457031 -7.0625 36.3125 -7.3125 L 36.3125 -0.53125 C 35.34375 -0.0703125 33.925781 0.304688 32.0625 0.609375 C 30.195312 0.910156 28.515625 1.0625 27.015625 1.0625 C 15.691406 1.0625 10.03125 -4.894531 10.03125 -16.8125 L 10.03125 -51.625 L 1.65625 -51.625 L 1.65625 -55.90625 L 10.03125 -59.578125 L 13.78125 -72.078125 L 18.90625 -72.078125 L 18.90625 -58.515625 L 35.875 -58.515625 L 35.875 -51.625 L 18.90625 -51.625 L 18.90625 -17.1875 C 18.90625 -13.664062 19.738281 -10.960938 21.40625 -9.078125 C 23.082031 -7.191406 25.378906 -6.25 28.296875 -6.25 Z M 28.296875 -6.25 "/></g></g></g><g fill="#000000" fill-opacity="1"><g transform="translate(232.843352, 1072.663706)"><g><path d="M 34.109375 1.0625 C 25.460938 1.0625 18.640625 -1.566406 13.640625 -6.828125 C 8.640625 -12.097656 6.140625 -19.414062 6.140625 -28.78125 C 6.140625 -38.207031 8.460938 -45.695312 13.109375 -51.25 C 17.753906 -56.800781 23.992188 -59.578125 31.828125 -59.578125 C 39.148438 -59.578125 44.945312 -57.164062 49.21875 -52.34375 C 53.5 -47.519531 55.640625 -41.160156 55.640625 -33.265625 L 55.640625 -27.65625 L 15.328125 -27.65625 C 15.503906 -20.789062 17.238281 -15.578125 20.53125 -12.015625 C 23.820312 -8.453125 28.457031 -6.671875 34.4375 -6.671875 C 40.738281 -6.671875 46.96875 -7.988281 53.125 -10.625 L 53.125 -2.71875 C 49.988281 -1.363281 47.023438 -0.394531 44.234375 0.1875 C 41.441406 0.769531 38.066406 1.0625 34.109375 1.0625 Z M 31.71875 -52.15625 C 27.019531 -52.15625 23.269531 -50.625 20.46875 -47.5625 C 17.675781 -44.507812 16.03125 -40.273438 15.53125 -34.859375 L 46.125 -34.859375 C 46.125 -40.453125 44.878906 -44.734375 42.390625 -47.703125 C 39.898438 -50.671875 36.34375 -52.15625 31.71875 -52.15625 Z M 31.71875 -52.15625 "/></g></g></g><g fill="#000000" fill-opacity="1"><g transform="translate(294.182207, 1072.663706)"><g/></g></g><g fill="#000000" fill-opacity="1"><g transform="translate(322.582792, 1072.663706)"><g><path d="M 49.21875 -7.84375 L 48.75 -7.84375 C 44.65625 -1.90625 38.53125 1.0625 30.375 1.0625 C 22.726562 1.0625 16.773438 -1.550781 12.515625 -6.78125 C 8.265625 -12.007812 6.140625 -19.445312 6.140625 -29.09375 C 6.140625 -38.738281 8.273438 -46.226562 12.546875 -51.5625 C 16.816406 -56.90625 22.757812 -59.578125 30.375 -59.578125 C 38.3125 -59.578125 44.398438 -56.695312 48.640625 -50.9375 L 49.328125 -50.9375 L 48.953125 -55.15625 L 48.75 -59.265625 L 48.75 -83.078125 L 57.609375 -83.078125 L 57.609375 0 L 50.40625 0 Z M 31.5 -6.359375 C 37.550781 -6.359375 41.9375 -8.003906 44.65625 -11.296875 C 47.382812 -14.585938 48.75 -19.898438 48.75 -27.234375 L 48.75 -29.09375 C 48.75 -37.382812 47.367188 -43.300781 44.609375 -46.84375 C 41.847656 -50.382812 37.441406 -52.15625 31.390625 -52.15625 C 26.191406 -52.15625 22.210938 -50.132812 19.453125 -46.09375 C 16.703125 -42.0625 15.328125 -36.359375 15.328125 -28.984375 C 15.328125 -21.515625 16.695312 -15.875 19.4375 -12.0625 C 22.175781 -8.257812 26.195312 -6.359375 31.5 -6.359375 Z M 31.5 -6.359375 "/></g></g></g><g fill="#000000" fill-opacity="1"><g transform="translate(389.580411, 1072.663706)"><g><path d="M 34.109375 1.0625 C 25.460938 1.0625 18.640625 -1.566406 13.640625 -6.828125 C 8.640625 -12.097656 6.140625 -19.414062 6.140625 -28.78125 C 6.140625 -38.207031 8.460938 -45.695312 13.109375 -51.25 C 17.753906 -56.800781 23.992188 -59.578125 31.828125 -59.578125 C 39.148438 -59.578125 44.945312 -57.164062 49.21875 -52.34375 C 53.5 -47.519531 55.640625 -41.160156 55.640625 -33.265625 L 55.640625 -27.65625 L 15.328125 -27.65625 C 15.503906 -20.789062 17.238281 -15.578125 20.53125 -12.015625 C 23.820312 -8.453125 28.457031 -6.671875 34.4375 -6.671875 C 40.738281 -6.671875 46.96875 -7.988281 53.125 -10.625 L 53.125 -2.71875 C 49.988281 -1.363281 47.023438 -0.394531 44.234375 0.1875 C 41.441406 0.769531 38.066406 1.0625 34.109375 1.0625 Z M 31.71875 -52.15625 C 27.019531 -52.15625 23.269531 -50.625 20.46875 -47.5625 C 17.675781 -44.507812 16.03125 -40.273438 15.53125 -34.859375 L 46.125 -34.859375 C 46.125 -40.453125 44.878906 -44.734375 42.390625 -47.703125 C 39.898438 -50.671875 36.34375 -52.15625 31.71875 -52.15625 Z M 31.71875 -52.15625 "/></g></g></g><g fill="#000000" fill-opacity="1"><g transform="translate(450.919267, 1072.663706)"><g/></g></g><g fill="#000000" fill-opacity="1"><g transform="translate(479.319851, 1072.663706)"><g><path d="M 45.28125 0 L 18.796875 -69.1875 L 18.359375 -69.1875 C 18.859375 -63.707031 19.109375 -57.195312 19.109375 -49.65625 L 19.109375 0 L 10.734375 0 L 10.734375 -78.0625 L 24.40625 -78.0625 L 49.125 -13.671875 L 49.546875 -13.671875 L 74.484375 -78.0625 L 88.046875 -78.0625 L 88.046875 0 L 78.96875 0 L 78.96875 -50.296875 C 78.96875 -56.054688 79.21875 -62.320312 79.71875 -69.09375 L 79.28125 -69.09375 L 52.59375 0 Z M 45.28125 0 "/></g></g></g><g fill="#000000" fill-opacity="1"><g transform="translate(578.027897, 1072.663706)"><g><path d="M 18.265625 0 L 9.390625 0 L 9.390625 -58.515625 L 18.265625 -58.515625 Z M 8.65625 -74.375 C 8.65625 -76.40625 9.148438 -77.890625 10.140625 -78.828125 C 11.140625 -79.773438 12.382812 -80.25 13.875 -80.25 C 15.300781 -80.25 16.53125 -79.765625 17.5625 -78.796875 C 18.59375 -77.835938 19.109375 -76.363281 19.109375 -74.375 C 19.109375 -72.382812 18.59375 -70.898438 17.5625 -69.921875 C 16.53125 -68.941406 15.300781 -68.453125 13.875 -68.453125 C 12.382812 -68.453125 11.140625 -68.941406 10.140625 -69.921875 C 9.148438 -70.898438 8.65625 -72.382812 8.65625 -74.375 Z M 8.65625 -74.375 "/></g></g></g><g fill="#000000" fill-opacity="1"><g transform="translate(605.681098, 1072.663706)"><g><path d="M 49.4375 0 L 49.4375 -37.859375 C 49.4375 -42.628906 48.347656 -46.1875 46.171875 -48.53125 C 44.003906 -50.882812 40.609375 -52.0625 35.984375 -52.0625 C 29.859375 -52.0625 25.375 -50.40625 22.53125 -47.09375 C 19.6875 -43.78125 18.265625 -38.316406 18.265625 -30.703125 L 18.265625 0 L 9.390625 0 L 9.390625 -58.515625 L 16.609375 -58.515625 L 18.046875 -50.5 L 18.46875 -50.5 C 20.289062 -53.382812 22.835938 -55.617188 26.109375 -57.203125 C 29.378906 -58.785156 33.023438 -59.578125 37.046875 -59.578125 C 44.097656 -59.578125 49.398438 -57.878906 52.953125 -54.484375 C 56.515625 -51.085938 58.296875 -45.648438 58.296875 -38.171875 L 58.296875 0 Z M 49.4375 0 "/></g></g></g><g fill="#000000" fill-opacity="1"><g transform="translate(672.785451, 1072.663706)"><g><path d="M 45.375 0 L 43.625 -8.328125 L 43.1875 -8.328125 C 40.269531 -4.660156 37.359375 -2.175781 34.453125 -0.875 C 31.554688 0.414062 27.9375 1.0625 23.59375 1.0625 C 17.789062 1.0625 13.242188 -0.429688 9.953125 -3.421875 C 6.660156 -6.410156 5.015625 -10.660156 5.015625 -16.171875 C 5.015625 -27.992188 14.46875 -34.1875 33.375 -34.75 L 43.296875 -35.078125 L 43.296875 -38.703125 C 43.296875 -43.296875 42.304688 -46.6875 40.328125 -48.875 C 38.359375 -51.0625 35.203125 -52.15625 30.859375 -52.15625 C 25.984375 -52.15625 20.46875 -50.660156 14.3125 -47.671875 L 11.578125 -54.453125 C 14.460938 -56.023438 17.625 -57.253906 21.0625 -58.140625 C 24.5 -59.035156 27.941406 -59.484375 31.390625 -59.484375 C 38.367188 -59.484375 43.539062 -57.929688 46.90625 -54.828125 C 50.269531 -51.734375 51.953125 -46.769531 51.953125 -39.9375 L 51.953125 0 Z M 25.359375 -6.25 C 30.878906 -6.25 35.210938 -7.757812 38.359375 -10.78125 C 41.515625 -13.8125 43.09375 -18.046875 43.09375 -23.484375 L 43.09375 -28.78125 L 34.21875 -28.40625 C 27.175781 -28.15625 22.097656 -27.054688 18.984375 -25.109375 C 15.867188 -23.171875 14.3125 -20.160156 14.3125 -16.078125 C 14.3125 -12.867188 15.28125 -10.425781 17.21875 -8.75 C 19.15625 -7.082031 21.867188 -6.25 25.359375 -6.25 Z M 25.359375 -6.25 "/></g></g></g><g fill="#000000" fill-opacity="1"><g transform="translate(733.590497, 1072.663706)"><g><path d="M 47.140625 -15.96875 C 47.140625 -10.519531 45.109375 -6.316406 41.046875 -3.359375 C 36.992188 -0.410156 31.300781 1.0625 23.96875 1.0625 C 16.207031 1.0625 10.15625 -0.160156 5.8125 -2.609375 L 5.8125 -10.84375 C 8.625 -9.414062 11.640625 -8.289062 14.859375 -7.46875 C 18.085938 -6.65625 21.195312 -6.25 24.1875 -6.25 C 28.8125 -6.25 32.367188 -6.984375 34.859375 -8.453125 C 37.347656 -9.929688 38.59375 -12.1875 38.59375 -15.21875 C 38.59375 -17.5 37.601562 -19.445312 35.625 -21.0625 C 33.65625 -22.675781 29.804688 -24.585938 24.078125 -26.796875 C 18.628906 -28.828125 14.753906 -30.597656 12.453125 -32.109375 C 10.160156 -33.628906 8.453125 -35.347656 7.328125 -37.265625 C 6.210938 -39.191406 5.65625 -41.488281 5.65625 -44.15625 C 5.65625 -48.925781 7.59375 -52.6875 11.46875 -55.4375 C 15.351562 -58.195312 20.675781 -59.578125 27.4375 -59.578125 C 33.738281 -59.578125 39.898438 -58.296875 45.921875 -55.734375 L 42.765625 -48.53125 C 36.890625 -50.945312 31.566406 -52.15625 26.796875 -52.15625 C 22.597656 -52.15625 19.429688 -51.5 17.296875 -50.1875 C 15.160156 -48.875 14.09375 -47.054688 14.09375 -44.734375 C 14.09375 -43.171875 14.492188 -41.835938 15.296875 -40.734375 C 16.097656 -39.628906 17.390625 -38.578125 19.171875 -37.578125 C 20.953125 -36.585938 24.367188 -35.148438 29.421875 -33.265625 C 36.359375 -30.734375 41.046875 -28.1875 43.484375 -25.625 C 45.921875 -23.0625 47.140625 -19.84375 47.140625 -15.96875 Z M 47.140625 -15.96875 "/></g></g></g><g fill="#000000" fill-opacity="1"><g transform="translate(785.747174, 1072.663706)"><g/></g></g><g fill="#000000" fill-opacity="1"><g transform="translate(814.147759, 1072.663706)"><g><path d="M 45.0625 -40.890625 L 71.59375 -40.890625 L 71.59375 -2.9375 C 67.46875 -1.625 63.269531 -0.628906 59 0.046875 C 54.726562 0.722656 49.78125 1.0625 44.15625 1.0625 C 32.332031 1.0625 23.128906 -2.445312 16.546875 -9.46875 C 9.960938 -16.5 6.671875 -26.351562 6.671875 -39.03125 C 6.671875 -47.144531 8.296875 -54.253906 11.546875 -60.359375 C 14.804688 -66.460938 19.5 -71.125 25.625 -74.34375 C 31.75 -77.5625 38.921875 -79.171875 47.140625 -79.171875 C 55.472656 -79.171875 63.234375 -77.644531 70.421875 -74.59375 L 66.890625 -66.578125 C 59.847656 -69.566406 53.070312 -71.0625 46.5625 -71.0625 C 37.050781 -71.0625 29.625 -68.226562 24.28125 -62.5625 C 18.945312 -56.90625 16.28125 -49.0625 16.28125 -39.03125 C 16.28125 -28.488281 18.851562 -20.492188 24 -15.046875 C 29.144531 -9.609375 36.695312 -6.890625 46.65625 -6.890625 C 52.070312 -6.890625 57.359375 -7.507812 62.515625 -8.75 L 62.515625 -32.78125 L 45.0625 -32.78125 Z M 45.0625 -40.890625 "/></g></g></g><g fill="#000000" fill-opacity="1"><g transform="translate(893.744167, 1072.663706)"><g><path d="M 34.109375 1.0625 C 25.460938 1.0625 18.640625 -1.566406 13.640625 -6.828125 C 8.640625 -12.097656 6.140625 -19.414062 6.140625 -28.78125 C 6.140625 -38.207031 8.460938 -45.695312 13.109375 -51.25 C 17.753906 -56.800781 23.992188 -59.578125 31.828125 -59.578125 C 39.148438 -59.578125 44.945312 -57.164062 49.21875 -52.34375 C 53.5 -47.519531 55.640625 -41.160156 55.640625 -33.265625 L 55.640625 -27.65625 L 15.328125 -27.65625 C 15.503906 -20.789062 17.238281 -15.578125 20.53125 -12.015625 C 23.820312 -8.453125 28.457031 -6.671875 34.4375 -6.671875 C 40.738281 -6.671875 46.96875 -7.988281 53.125 -10.625 L 53.125 -2.71875 C 49.988281 -1.363281 47.023438 -0.394531 44.234375 0.1875 C 41.441406 0.769531 38.066406 1.0625 34.109375 1.0625 Z M 31.71875 -52.15625 C 27.019531 -52.15625 23.269531 -50.625 20.46875 -47.5625 C 17.675781 -44.507812 16.03125 -40.273438 15.53125 -34.859375 L 46.125 -34.859375 C 46.125 -40.453125 44.878906 -44.734375 42.390625 -47.703125 C 39.898438 -50.671875 36.34375 -52.15625 31.71875 -52.15625 Z M 31.71875 -52.15625 "/></g></g></g><g fill="#000000" fill-opacity="1"><g transform="translate(955.082989, 1072.663706)"><g><path d="M 36.09375 -59.578125 C 38.6875 -59.578125 41.019531 -59.363281 43.09375 -58.9375 L 41.859375 -50.71875 C 39.441406 -51.25 37.304688 -51.515625 35.453125 -51.515625 C 30.710938 -51.515625 26.660156 -49.59375 23.296875 -45.75 C 19.941406 -41.90625 18.265625 -37.117188 18.265625 -31.390625 L 18.265625 0 L 9.390625 0 L 9.390625 -58.515625 L 16.71875 -58.515625 L 17.71875 -47.671875 L 18.15625 -47.671875 C 20.320312 -51.484375 22.9375 -54.421875 26 -56.484375 C 29.0625 -58.546875 32.425781 -59.578125 36.09375 -59.578125 Z M 36.09375 -59.578125 "/></g></g></g><g fill="#000000" fill-opacity="1"><g transform="translate(999.712478, 1072.663706)"><g><path d="M 45.375 0 L 43.625 -8.328125 L 43.1875 -8.328125 C 40.269531 -4.660156 37.359375 -2.175781 34.453125 -0.875 C 31.554688 0.414062 27.9375 1.0625 23.59375 1.0625 C 17.789062 1.0625 13.242188 -0.429688 9.953125 -3.421875 C 6.660156 -6.410156 5.015625 -10.660156 5.015625 -16.171875 C 5.015625 -27.992188 14.46875 -34.1875 33.375 -34.75 L 43.296875 -35.078125 L 43.296875 -38.703125 C 43.296875 -43.296875 42.304688 -46.6875 40.328125 -48.875 C 38.359375 -51.0625 35.203125 -52.15625 30.859375 -52.15625 C 25.984375 -52.15625 20.46875 -50.660156 14.3125 -47.671875 L 11.578125 -54.453125 C 14.460938 -56.023438 17.625 -57.253906 21.0625 -58.140625 C 24.5 -59.035156 27.941406 -59.484375 31.390625 -59.484375 C 38.367188 -59.484375 43.539062 -57.929688 46.90625 -54.828125 C 50.269531 -51.734375 51.953125 -46.769531 51.953125 -39.9375 L 51.953125 0 Z M 25.359375 -6.25 C 30.878906 -6.25 35.210938 -7.757812 38.359375 -10.78125 C 41.515625 -13.8125 43.09375 -18.046875 43.09375 -23.484375 L 43.09375 -28.78125 L 34.21875 -28.40625 C 27.175781 -28.15625 22.097656 -27.054688 18.984375 -25.109375 C 15.867188 -23.171875 14.3125 -20.160156 14.3125 -16.078125 C 14.3125 -12.867188 15.28125 -10.425781 17.21875 -8.75 C 19.15625 -7.082031 21.867188 -6.25 25.359375 -6.25 Z M 25.359375 -6.25 "/></g></g></g><g fill="#000000" fill-opacity="1"><g transform="translate(1060.517523, 1072.663706)"><g><path d="M 18.265625 0 L 9.390625 0 L 9.390625 -58.515625 L 18.265625 -58.515625 Z M 8.65625 -74.375 C 8.65625 -76.40625 9.148438 -77.890625 10.140625 -78.828125 C 11.140625 -79.773438 12.382812 -80.25 13.875 -80.25 C 15.300781 -80.25 16.53125 -79.765625 17.5625 -78.796875 C 18.59375 -77.835938 19.109375 -76.363281 19.109375 -74.375 C 19.109375 -72.382812 18.59375 -70.898438 17.5625 -69.921875 C 16.53125 -68.941406 15.300781 -68.453125 13.875 -68.453125 C 12.382812 -68.453125 11.140625 -68.941406 10.140625 -69.921875 C 9.148438 -70.898438 8.65625 -72.382812 8.65625 -74.375 Z M 8.65625 -74.375 "/></g></g></g><g fill="#000000" fill-opacity="1"><g transform="translate(1088.170724, 1072.663706)"><g><path d="M 47.140625 -15.96875 C 47.140625 -10.519531 45.109375 -6.316406 41.046875 -3.359375 C 36.992188 -0.410156 31.300781 1.0625 23.96875 1.0625 C 16.207031 1.0625 10.15625 -0.160156 5.8125 -2.609375 L 5.8125 -10.84375 C 8.625 -9.414062 11.640625 -8.289062 14.859375 -7.46875 C 18.085938 -6.65625 21.195312 -6.25 24.1875 -6.25 C 28.8125 -6.25 32.367188 -6.984375 34.859375 -8.453125 C 37.347656 -9.929688 38.59375 -12.1875 38.59375 -15.21875 C 38.59375 -17.5 37.601562 -19.445312 35.625 -21.0625 C 33.65625 -22.675781 29.804688 -24.585938 24.078125 -26.796875 C 18.628906 -28.828125 14.753906 -30.597656 12.453125 -32.109375 C 10.160156 -33.628906 8.453125 -35.347656 7.328125 -37.265625 C 6.210938 -39.191406 5.65625 -41.488281 5.65625 -44.15625 C 5.65625 -48.925781 7.59375 -52.6875 11.46875 -55.4375 C 15.351562 -58.195312 20.675781 -59.578125 27.4375 -59.578125 C 33.738281 -59.578125 39.898438 -58.296875 45.921875 -55.734375 L 42.765625 -48.53125 C 36.890625 -50.945312 31.566406 -52.15625 26.796875 -52.15625 C 22.597656 -52.15625 19.429688 -51.5 17.296875 -50.1875 C 15.160156 -48.875 14.09375 -47.054688 14.09375 -44.734375 C 14.09375 -43.171875 14.492188 -41.835938 15.296875 -40.734375 C 16.097656 -39.628906 17.390625 -38.578125 19.171875 -37.578125 C 20.953125 -36.585938 24.367188 -35.148438 29.421875 -33.265625 C 36.359375 -30.734375 41.046875 -28.1875 43.484375 -25.625 C 45.921875 -23.0625 47.140625 -19.84375 47.140625 -15.96875 Z M 47.140625 -15.96875 "/></g></g></g><g fill="#000000" fill-opacity="1"><g transform="translate(347.674532, 1225.069538)"><g><path d="M 44.15625 -71.0625 C 35.570312 -71.0625 28.796875 -68.203125 23.828125 -62.484375 C 18.867188 -56.773438 16.390625 -48.957031 16.390625 -39.03125 C 16.390625 -28.8125 18.78125 -20.914062 23.5625 -15.34375 C 28.351562 -9.78125 35.179688 -7 44.046875 -7 C 49.492188 -7 55.707031 -7.976562 62.6875 -9.9375 L 62.6875 -1.96875 C 57.269531 0.0507812 50.59375 1.0625 42.65625 1.0625 C 31.15625 1.0625 22.28125 -2.421875 16.03125 -9.390625 C 9.789062 -16.367188 6.671875 -26.285156 6.671875 -39.140625 C 6.671875 -47.179688 8.175781 -54.226562 11.1875 -60.28125 C 14.195312 -66.332031 18.539062 -70.992188 24.21875 -74.265625 C 29.894531 -77.535156 36.578125 -79.171875 44.265625 -79.171875 C 52.453125 -79.171875 59.601562 -77.675781 65.71875 -74.6875 L 61.875 -66.890625 C 55.96875 -69.671875 50.0625 -71.0625 44.15625 -71.0625 Z M 44.15625 -71.0625 "/></g></g></g><g fill="#000000" fill-opacity="1"><g transform="translate(416.64738, 1225.069538)"><g><path d="M 45.375 0 L 43.625 -8.328125 L 43.1875 -8.328125 C 40.269531 -4.660156 37.359375 -2.175781 34.453125 -0.875 C 31.554688 0.414062 27.9375 1.0625 23.59375 1.0625 C 17.789062 1.0625 13.242188 -0.429688 9.953125 -3.421875 C 6.660156 -6.410156 5.015625 -10.660156 5.015625 -16.171875 C 5.015625 -27.992188 14.46875 -34.1875 33.375 -34.75 L 43.296875 -35.078125 L 43.296875 -38.703125 C 43.296875 -43.296875 42.304688 -46.6875 40.328125 -48.875 C 38.359375 -51.0625 35.203125 -52.15625 30.859375 -52.15625 C 25.984375 -52.15625 20.46875 -50.660156 14.3125 -47.671875 L 11.578125 -54.453125 C 14.460938 -56.023438 17.625 -57.253906 21.0625 -58.140625 C 24.5 -59.035156 27.941406 -59.484375 31.390625 -59.484375 C 38.367188 -59.484375 43.539062 -57.929688 46.90625 -54.828125 C 50.269531 -51.734375 51.953125 -46.769531 51.953125 -39.9375 L 51.953125 0 Z M 25.359375 -6.25 C 30.878906 -6.25 35.210938 -7.757812 38.359375 -10.78125 C 41.515625 -13.8125 43.09375 -18.046875 43.09375 -23.484375 L 43.09375 -28.78125 L 34.21875 -28.40625 C 27.175781 -28.15625 22.097656 -27.054688 18.984375 -25.109375 C 15.867188 -23.171875 14.3125 -20.160156 14.3125 -16.078125 C 14.3125 -12.867188 15.28125 -10.425781 17.21875 -8.75 C 19.15625 -7.082031 21.867188 -6.25 25.359375 -6.25 Z M 25.359375 -6.25 "/></g></g></g><g fill="#000000" fill-opacity="1"><g transform="translate(477.45239, 1225.069538)"><g><path d="M 83.984375 0 L 83.984375 -38.0625 C 83.984375 -42.726562 82.984375 -46.226562 80.984375 -48.5625 C 78.992188 -50.894531 75.898438 -52.0625 71.703125 -52.0625 C 66.179688 -52.0625 62.101562 -50.472656 59.46875 -47.296875 C 56.84375 -44.128906 55.53125 -39.253906 55.53125 -32.671875 L 55.53125 0 L 46.65625 0 L 46.65625 -38.0625 C 46.65625 -42.726562 45.660156 -46.226562 43.671875 -48.5625 C 41.679688 -50.894531 38.566406 -52.0625 34.328125 -52.0625 C 28.773438 -52.0625 24.707031 -50.394531 22.125 -47.0625 C 19.550781 -43.738281 18.265625 -38.285156 18.265625 -30.703125 L 18.265625 0 L 9.390625 0 L 9.390625 -58.515625 L 16.609375 -58.515625 L 18.046875 -50.5 L 18.46875 -50.5 C 20.144531 -53.351562 22.503906 -55.578125 25.546875 -57.171875 C 28.585938 -58.773438 31.992188 -59.578125 35.765625 -59.578125 C 44.921875 -59.578125 50.898438 -56.269531 53.703125 -49.65625 L 54.140625 -49.65625 C 55.878906 -52.71875 58.40625 -55.132812 61.71875 -56.90625 C 65.03125 -58.6875 68.800781 -59.578125 73.03125 -59.578125 C 79.65625 -59.578125 84.613281 -57.878906 87.90625 -54.484375 C 91.195312 -51.085938 92.84375 -45.648438 92.84375 -38.171875 L 92.84375 0 Z M 83.984375 0 "/></g></g></g><g fill="#000000" fill-opacity="1"><g transform="translate(579.149971, 1225.069538)"><g><path d="M 36.625 1.0625 C 32.8125 1.0625 29.332031 0.359375 26.1875 -1.046875 C 23.039062 -2.453125 20.398438 -4.613281 18.265625 -7.53125 L 17.625 -7.53125 C 18.050781 -4.113281 18.265625 -0.875 18.265625 2.1875 L 18.265625 26.265625 L 9.390625 26.265625 L 9.390625 -58.515625 L 16.609375 -58.515625 L 17.828125 -50.5 L 18.265625 -50.5 C 20.535156 -53.707031 23.179688 -56.019531 26.203125 -57.4375 C 29.234375 -58.863281 32.707031 -59.578125 36.625 -59.578125 C 44.382812 -59.578125 50.375 -56.925781 54.59375 -51.625 C 58.8125 -46.320312 60.921875 -38.882812 60.921875 -29.3125 C 60.921875 -19.695312 58.773438 -12.226562 54.484375 -6.90625 C 50.191406 -1.59375 44.238281 1.0625 36.625 1.0625 Z M 35.34375 -52.0625 C 29.363281 -52.0625 25.035156 -50.40625 22.359375 -47.09375 C 19.691406 -43.78125 18.328125 -38.507812 18.265625 -31.28125 L 18.265625 -29.3125 C 18.265625 -21.09375 19.632812 -15.210938 22.375 -11.671875 C 25.113281 -8.128906 29.507812 -6.359375 35.5625 -6.359375 C 40.613281 -6.359375 44.570312 -8.40625 47.4375 -12.5 C 50.300781 -16.59375 51.734375 -22.234375 51.734375 -29.421875 C 51.734375 -36.710938 50.300781 -42.304688 47.4375 -46.203125 C 44.570312 -50.109375 40.539062 -52.0625 35.34375 -52.0625 Z M 35.34375 -52.0625 "/></g></g></g><g fill="#000000" fill-opacity="1"><g transform="translate(646.14759, 1225.069538)"><g><path d="M 17.71875 -58.515625 L 17.71875 -20.5625 C 17.71875 -15.789062 18.800781 -12.226562 20.96875 -9.875 C 23.144531 -7.53125 26.550781 -6.359375 31.1875 -6.359375 C 37.300781 -6.359375 41.773438 -8.03125 44.609375 -11.375 C 47.441406 -14.71875 48.859375 -20.179688 48.859375 -27.765625 L 48.859375 -58.515625 L 57.71875 -58.515625 L 57.71875 0 L 50.40625 0 L 49.125 -7.84375 L 48.640625 -7.84375 C 46.828125 -4.96875 44.304688 -2.765625 41.078125 -1.234375 C 37.859375 0.296875 34.1875 1.0625 30.0625 1.0625 C 22.9375 1.0625 17.601562 -0.625 14.0625 -4 C 10.519531 -7.382812 8.75 -12.796875 8.75 -20.234375 L 8.75 -58.515625 Z M 17.71875 -58.515625 "/></g></g></g><g fill="#000000" fill-opacity="1"><g transform="translate(713.251979, 1225.069538)"><g><path d="M 47.140625 -15.96875 C 47.140625 -10.519531 45.109375 -6.316406 41.046875 -3.359375 C 36.992188 -0.410156 31.300781 1.0625 23.96875 1.0625 C 16.207031 1.0625 10.15625 -0.160156 5.8125 -2.609375 L 5.8125 -10.84375 C 8.625 -9.414062 11.640625 -8.289062 14.859375 -7.46875 C 18.085938 -6.65625 21.195312 -6.25 24.1875 -6.25 C 28.8125 -6.25 32.367188 -6.984375 34.859375 -8.453125 C 37.347656 -9.929688 38.59375 -12.1875 38.59375 -15.21875 C 38.59375 -17.5 37.601562 -19.445312 35.625 -21.0625 C 33.65625 -22.675781 29.804688 -24.585938 24.078125 -26.796875 C 18.628906 -28.828125 14.753906 -30.597656 12.453125 -32.109375 C 10.160156 -33.628906 8.453125 -35.347656 7.328125 -37.265625 C 6.210938 -39.191406 5.65625 -41.488281 5.65625 -44.15625 C 5.65625 -48.925781 7.59375 -52.6875 11.46875 -55.4375 C 15.351562 -58.195312 20.675781 -59.578125 27.4375 -59.578125 C 33.738281 -59.578125 39.898438 -58.296875 45.921875 -55.734375 L 42.765625 -48.53125 C 36.890625 -50.945312 31.566406 -52.15625 26.796875 -52.15625 C 22.597656 -52.15625 19.429688 -51.5 17.296875 -50.1875 C 15.160156 -48.875 14.09375 -47.054688 14.09375 -44.734375 C 14.09375 -43.171875 14.492188 -41.835938 15.296875 -40.734375 C 16.097656 -39.628906 17.390625 -38.578125 19.171875 -37.578125 C 20.953125 -36.585938 24.367188 -35.148438 29.421875 -33.265625 C 36.359375 -30.734375 41.046875 -28.1875 43.484375 -25.625 C 45.921875 -23.0625 47.140625 -19.84375 47.140625 -15.96875 Z M 47.140625 -15.96875 "/></g></g></g><g fill="#000000" fill-opacity="1"><g transform="translate(765.424798, 1225.069538)"><g/></g></g><g fill="#000000" fill-opacity="1"><g transform="translate(392.657359, 1377.475369)"><g><path d="M 54.78125 -20.765625 C 54.78125 -13.898438 52.285156 -8.546875 47.296875 -4.703125 C 42.316406 -0.859375 35.554688 1.0625 27.015625 1.0625 C 17.765625 1.0625 10.644531 -0.128906 5.65625 -2.515625 L 5.65625 -11.265625 C 8.863281 -9.910156 12.351562 -8.84375 16.125 -8.0625 C 19.894531 -7.28125 23.632812 -6.890625 27.34375 -6.890625 C 33.382812 -6.890625 37.9375 -8.035156 41 -10.328125 C 44.0625 -12.628906 45.59375 -15.828125 45.59375 -19.921875 C 45.59375 -22.617188 45.050781 -24.832031 43.96875 -26.5625 C 42.882812 -28.289062 41.066406 -29.882812 38.515625 -31.34375 C 35.972656 -32.800781 32.101562 -34.457031 26.90625 -36.3125 C 19.644531 -38.90625 14.457031 -41.976562 11.34375 -45.53125 C 8.226562 -49.09375 6.671875 -53.742188 6.671875 -59.484375 C 6.671875 -65.492188 8.929688 -70.273438 13.453125 -73.828125 C 17.972656 -77.390625 23.953125 -79.171875 31.390625 -79.171875 C 39.148438 -79.171875 46.285156 -77.75 52.796875 -74.90625 L 49.96875 -67 C 43.53125 -69.707031 37.269531 -71.0625 31.1875 -71.0625 C 26.375 -71.0625 22.613281 -70.03125 19.90625 -67.96875 C 17.207031 -65.90625 15.859375 -63.039062 15.859375 -59.375 C 15.859375 -56.664062 16.351562 -54.445312 17.34375 -52.71875 C 18.34375 -51 20.023438 -49.414062 22.390625 -47.96875 C 24.765625 -46.53125 28.390625 -44.9375 33.265625 -43.1875 C 41.453125 -40.269531 47.082031 -37.140625 50.15625 -33.796875 C 53.238281 -30.453125 54.78125 -26.109375 54.78125 -20.765625 Z M 54.78125 -20.765625 "/></g></g></g><g fill="#000000" fill-opacity="1"><g transform="translate(452.661601, 1377.475369)"><g><path d="M 45.375 0 L 43.625 -8.328125 L 43.1875 -8.328125 C 40.269531 -4.660156 37.359375 -2.175781 34.453125 -0.875 C 31.554688 0.414062 27.9375 1.0625 23.59375 1.0625 C 17.789062 1.0625 13.242188 -0.429688 9.953125 -3.421875 C 6.660156 -6.410156 5.015625 -10.660156 5.015625 -16.171875 C 5.015625 -27.992188 14.46875 -34.1875 33.375 -34.75 L 43.296875 -35.078125 L 43.296875 -38.703125 C 43.296875 -43.296875 42.304688 -46.6875 40.328125 -48.875 C 38.359375 -51.0625 35.203125 -52.15625 30.859375 -52.15625 C 25.984375 -52.15625 20.46875 -50.660156 14.3125 -47.671875 L 11.578125 -54.453125 C 14.460938 -56.023438 17.625 -57.253906 21.0625 -58.140625 C 24.5 -59.035156 27.941406 -59.484375 31.390625 -59.484375 C 38.367188 -59.484375 43.539062 -57.929688 46.90625 -54.828125 C 50.269531 -51.734375 51.953125 -46.769531 51.953125 -39.9375 L 51.953125 0 Z M 25.359375 -6.25 C 30.878906 -6.25 35.210938 -7.757812 38.359375 -10.78125 C 41.515625 -13.8125 43.09375 -18.046875 43.09375 -23.484375 L 43.09375 -28.78125 L 34.21875 -28.40625 C 27.175781 -28.15625 22.097656 -27.054688 18.984375 -25.109375 C 15.867188 -23.171875 14.3125 -20.160156 14.3125 -16.078125 C 14.3125 -12.867188 15.28125 -10.425781 17.21875 -8.75 C 19.15625 -7.082031 21.867188 -6.25 25.359375 -6.25 Z M 25.359375 -6.25 "/></g></g></g><g fill="#000000" fill-opacity="1"><g transform="translate(513.466612, 1377.475369)"><g><path d="M 18.265625 0 L 9.390625 0 L 9.390625 -83.078125 L 18.265625 -83.078125 Z M 18.265625 0 "/></g></g></g><g fill="#000000" fill-opacity="1"><g transform="translate(541.119813, 1377.475369)"><g><path d="M 18.265625 0 L 9.390625 0 L 9.390625 -58.515625 L 18.265625 -58.515625 Z M 8.65625 -74.375 C 8.65625 -76.40625 9.148438 -77.890625 10.140625 -78.828125 C 11.140625 -79.773438 12.382812 -80.25 13.875 -80.25 C 15.300781 -80.25 16.53125 -79.765625 17.5625 -78.796875 C 18.59375 -77.835938 19.109375 -76.363281 19.109375 -74.375 C 19.109375 -72.382812 18.59375 -70.898438 17.5625 -69.921875 C 16.53125 -68.941406 15.300781 -68.453125 13.875 -68.453125 C 12.382812 -68.453125 11.140625 -68.941406 10.140625 -69.921875 C 9.148438 -70.898438 8.65625 -72.382812 8.65625 -74.375 Z M 8.65625 -74.375 "/></g></g></g><g fill="#000000" fill-opacity="1"><g transform="translate(568.773014, 1377.475369)"><g><path d="M 49.4375 0 L 49.4375 -37.859375 C 49.4375 -42.628906 48.347656 -46.1875 46.171875 -48.53125 C 44.003906 -50.882812 40.609375 -52.0625 35.984375 -52.0625 C 29.859375 -52.0625 25.375 -50.40625 22.53125 -47.09375 C 19.6875 -43.78125 18.265625 -38.316406 18.265625 -30.703125 L 18.265625 0 L 9.390625 0 L 9.390625 -58.515625 L 16.609375 -58.515625 L 18.046875 -50.5 L 18.46875 -50.5 C 20.289062 -53.382812 22.835938 -55.617188 26.109375 -57.203125 C 29.378906 -58.785156 33.023438 -59.578125 37.046875 -59.578125 C 44.097656 -59.578125 49.398438 -57.878906 52.953125 -54.484375 C 56.515625 -51.085938 58.296875 -45.648438 58.296875 -38.171875 L 58.296875 0 Z M 49.4375 0 "/></g></g></g><g fill="#000000" fill-opacity="1"><g transform="translate(635.877402, 1377.475369)"><g><path d="M 45.375 0 L 43.625 -8.328125 L 43.1875 -8.328125 C 40.269531 -4.660156 37.359375 -2.175781 34.453125 -0.875 C 31.554688 0.414062 27.9375 1.0625 23.59375 1.0625 C 17.789062 1.0625 13.242188 -0.429688 9.953125 -3.421875 C 6.660156 -6.410156 5.015625 -10.660156 5.015625 -16.171875 C 5.015625 -27.992188 14.46875 -34.1875 33.375 -34.75 L 43.296875 -35.078125 L 43.296875 -38.703125 C 43.296875 -43.296875 42.304688 -46.6875 40.328125 -48.875 C 38.359375 -51.0625 35.203125 -52.15625 30.859375 -52.15625 C 25.984375 -52.15625 20.46875 -50.660156 14.3125 -47.671875 L 11.578125 -54.453125 C 14.460938 -56.023438 17.625 -57.253906 21.0625 -58.140625 C 24.5 -59.035156 27.941406 -59.484375 31.390625 -59.484375 C 38.367188 -59.484375 43.539062 -57.929688 46.90625 -54.828125 C 50.269531 -51.734375 51.953125 -46.769531 51.953125 -39.9375 L 51.953125 0 Z M 25.359375 -6.25 C 30.878906 -6.25 35.210938 -7.757812 38.359375 -10.78125 C 41.515625 -13.8125 43.09375 -18.046875 43.09375 -23.484375 L 43.09375 -28.78125 L 34.21875 -28.40625 C 27.175781 -28.15625 22.097656 -27.054688 18.984375 -25.109375 C 15.867188 -23.171875 14.3125 -20.160156 14.3125 -16.078125 C 14.3125 -12.867188 15.28125 -10.425781 17.21875 -8.75 C 19.15625 -7.082031 21.867188 -6.25 25.359375 -6.25 Z M 25.359375 -6.25 "/></g></g></g><g fill="#000000" fill-opacity="1"><g transform="translate(696.682412, 1377.475369)"><g><path d="M 47.140625 -15.96875 C 47.140625 -10.519531 45.109375 -6.316406 41.046875 -3.359375 C 36.992188 -0.410156 31.300781 1.0625 23.96875 1.0625 C 16.207031 1.0625 10.15625 -0.160156 5.8125 -2.609375 L 5.8125 -10.84375 C 8.625 -9.414062 11.640625 -8.289062 14.859375 -7.46875 C 18.085938 -6.65625 21.195312 -6.25 24.1875 -6.25 C 28.8125 -6.25 32.367188 -6.984375 34.859375 -8.453125 C 37.347656 -9.929688 38.59375 -12.1875 38.59375 -15.21875 C 38.59375 -17.5 37.601562 -19.445312 35.625 -21.0625 C 33.65625 -22.675781 29.804688 -24.585938 24.078125 -26.796875 C 18.628906 -28.828125 14.753906 -30.597656 12.453125 -32.109375 C 10.160156 -33.628906 8.453125 -35.347656 7.328125 -37.265625 C 6.210938 -39.191406 5.65625 -41.488281 5.65625 -44.15625 C 5.65625 -48.925781 7.59375 -52.6875 11.46875 -55.4375 C 15.351562 -58.195312 20.675781 -59.578125 27.4375 -59.578125 C 33.738281 -59.578125 39.898438 -58.296875 45.921875 -55.734375 L 42.765625 -48.53125 C 36.890625 -50.945312 31.566406 -52.15625 26.796875 -52.15625 C 22.597656 -52.15625 19.429688 -51.5 17.296875 -50.1875 C 15.160156 -48.875 14.09375 -47.054688 14.09375 -44.734375 C 14.09375 -43.171875 14.492188 -41.835938 15.296875 -40.734375 C 16.097656 -39.628906 17.390625 -38.578125 19.171875 -37.578125 C 20.953125 -36.585938 24.367188 -35.148438 29.421875 -33.265625 C 36.359375 -30.734375 41.046875 -28.1875 43.484375 -25.625 C 45.921875 -23.0625 47.140625 -19.84375 47.140625 -15.96875 Z M 47.140625 -15.96875 "/></g></g></g></g></g></svg>